<svg xmlns="http://www.w3.org/2000/svg" viewBox="0 0 669.95 169.35"><defs><style>.cls-1{font-size:100px;font-family:Lato-Heavy, Lato;}.cls-2{letter-spacing:-0.01em;}</style></defs><title>Asset 4</title><g id="Layer_2" data-name="Layer 2"><g id="Layer_1-2" data-name="Layer 1"><text class="cls-1" transform="translate(230.16 113.24)"><tspan class="cls-2">G</tspan><tspan x="71.85" y="0">eekseek</tspan></text><path d="M125.35,119h-9.21v17.31a74.36,74.36,0,0,1-12.63,4.51,59.34,59.34,0,0,1-14.66,1.65,59.56,59.56,0,0,1-22-3.88A46.48,46.48,0,0,1,43.61,119H22.31a29.41,29.41,0,0,1-18-6.11q.93,2.85,2.06,5.6a78,78,0,0,0,18.16,26.84A83.39,83.39,0,0,0,52.87,163q16.56,6.33,37,6.34a105.56,105.56,0,0,0,30.32-4.28,88.93,88.93,0,0,0,27-13.53V109.38A29.49,29.49,0,0,1,125.35,119Z"/><path d="M48.71,44.08a44.62,44.62,0,0,1,15.93-11.3,52.58,52.58,0,0,1,20.89-4,80.45,80.45,0,0,1,12.11.8,58.21,58.21,0,0,1,9.7,2.28,62.1,62.1,0,0,1,8.4,3.48q3.93,2,8.05,4.51c2.89,1.76,5.55,2.36,8,1.83a9.28,9.28,0,0,0,5.94-4.45l9.94-15.31a79.76,79.76,0,0,0-11.42-8.79,77.6,77.6,0,0,0-13.83-6.9A92.17,92.17,0,0,0,106,1.66,104.62,104.62,0,0,0,86.79,0Q66.92,0,50.88,6.28A79.48,79.48,0,0,0,23.53,23.75,76.34,76.34,0,0,0,6.17,50.31H44A46.06,46.06,0,0,1,48.71,44.08Z"/><path d="M0,84.62v4.85a22,22,0,0,0,.41,4.24,22.34,22.34,0,0,0,21.9,18.06H47.84a22.33,22.33,0,0,0,22.31-22.3V70.32h7.36V89.47a22.32,22.32,0,0,0,22.3,22.3h25.54a22.29,22.29,0,0,0,22.31-22.3V57.57H0Zm90.26-14.3H134.9V89.47A9.56,9.56,0,0,1,125.35,99H99.81a9.55,9.55,0,0,1-9.48-8.45,8.13,8.13,0,0,1-.07-1.1Zm-77.5,0H57.39V89.47A9.56,9.56,0,0,1,47.84,99H22.31a9.56,9.56,0,0,1-9.55-9.55Z"/><rect x="187.66" width="5" height="169.35"/></g></g></svg>